<?xml version="1.0" encoding="UTF-8" ?>
<!DOCTYPE svg PUBLIC "-//W3C//DTD SVG 1.1//EN" "http://www.w3.org/Graphics/SVG/1.1/DTD/svg11.dtd">
<svg width="2937pt" height="530pt" viewBox="0 0 2937 530" version="1.1" xmlns="http://www.w3.org/2000/svg">
<g id="#ee3923ff">
<path fill="#ee3923" opacity="1.00" d=" M 245.98 39.90 C 281.94 20.62 323.29 11.71 364.01 14.13 C 399.49 16.12 434.45 26.79 464.98 45.01 C 498.61 64.96 526.83 93.91 545.93 128.04 C 518.44 143.92 507.35 181.46 519.81 210.27 C 525.13 222.42 535.26 231.84 546.65 238.32 C 555.27 243.27 564.55 246.97 573.97 250.06 C 572.36 278.53 565.24 306.67 553.05 332.45 C 542.20 322.57 538.73 307.33 538.46 293.21 C 528.22 293.19 517.97 293.20 507.73 293.21 C 507.36 308.73 510.67 324.68 519.30 337.78 C 524.43 345.64 531.24 352.44 539.17 357.47 C 519.59 388.12 492.40 413.85 460.72 431.73 C 428.90 449.78 392.55 459.73 355.97 460.45 C 314.36 461.49 272.53 450.57 236.82 429.19 C 208.82 412.55 184.55 389.69 166.22 362.76 C 144.69 331.25 131.49 294.12 128.38 256.07 C 124.93 215.82 132.55 174.63 150.52 138.42 C 171.02 96.69 204.93 61.72 245.98 39.90 M 293.31 134.25 C 266.23 150.96 246.04 178.31 237.84 209.04 C 230.22 236.81 232.63 267.15 244.50 293.39 C 255.21 317.59 273.93 338.12 297.01 351.06 C 321.37 364.86 350.41 370.25 378.08 365.86 C 401.10 362.29 423.06 352.07 440.53 336.66 C 466.90 313.61 482.85 279.18 483.39 244.16 C 473.10 247.53 462.83 250.94 452.55 254.32 C 451.94 269.89 446.65 285.14 437.89 297.98 C 425.73 315.97 407.03 329.11 386.43 335.66 C 362.67 342.78 336.37 339.05 314.69 327.36 C 296.21 317.50 280.79 301.40 273.23 281.72 C 342.34 258.89 411.46 236.12 480.57 213.28 C 474.05 188.35 460.61 164.95 440.79 148.25 C 416.90 126.51 384.28 114.74 352.02 116.18 C 331.30 116.97 310.84 123.14 293.31 134.25 Z" />
<path fill="#ee3923" opacity="1.00" d=" M 325.14 149.22 C 345.96 141.71 369.42 142.05 390.14 149.74 C 412.77 157.96 431.22 175.58 442.27 196.77 C 383.04 216.33 323.80 235.88 264.56 255.41 C 261.55 237.56 263.05 218.78 270.04 202.00 C 280.00 177.76 300.57 158.23 325.14 149.22 Z" />
</g>
<g id="#ffffffff">
<path fill="#ffffff" opacity="1.00" d=" M 715.18 39.95 C 725.39 39.95 735.59 39.94 745.80 39.95 C 745.80 68.15 745.80 96.35 745.80 124.54 C 764.94 124.56 784.07 124.54 803.20 124.55 C 803.20 133.71 803.20 142.86 803.20 152.02 C 784.07 152.02 764.94 152.02 745.80 152.02 C 745.80 222.75 745.80 293.49 745.80 364.22 C 735.59 364.22 725.39 364.22 715.18 364.22 C 715.18 293.49 715.18 222.75 715.18 152.02 C 698.38 152.02 681.58 152.02 664.78 152.02 C 664.78 142.86 664.78 133.71 664.78 124.55 C 681.58 124.54 698.38 124.55 715.18 124.54 C 715.18 96.35 715.18 68.15 715.18 39.95 Z" />
<path fill="#ffffff" opacity="1.00" d=" M 1382.38 39.95 C 1392.58 39.95 1402.79 39.95 1413.00 39.95 C 1413.04 117.07 1412.93 194.20 1413.06 271.33 C 1417.32 267.45 1420.19 262.27 1423.91 257.87 C 1457.84 213.43 1491.76 168.98 1525.71 124.54 C 1538.79 124.55 1551.88 124.55 1564.96 124.55 C 1533.43 164.86 1501.87 205.15 1470.35 245.47 C 1503.50 285.05 1536.67 324.62 1569.81 364.22 C 1556.69 364.20 1543.59 364.27 1530.48 364.18 C 1504.21 332.60 1477.97 300.99 1451.55 269.54 C 1439.17 285.17 1426.93 300.91 1414.56 316.54 C 1413.80 317.54 1412.74 318.51 1413.01 319.91 C 1412.99 334.68 1413.01 349.45 1413.00 364.22 C 1402.79 364.22 1392.59 364.22 1382.39 364.22 C 1382.37 256.13 1382.38 148.04 1382.38 39.95 Z" />
<path fill="#ffffff" opacity="1.00" d=" M 1892.78 39.95 C 1902.98 39.95 1913.19 39.95 1923.40 39.95 C 1923.40 69.62 1923.40 99.29 1923.40 128.97 C 1923.66 137.86 1922.88 146.84 1923.80 155.68 C 1933.23 141.74 1946.95 130.83 1962.66 124.78 C 1981.91 117.18 2003.34 117.01 2023.49 120.66 C 2042.22 124.09 2059.60 133.59 2073.03 147.03 C 2087.80 161.08 2096.64 180.37 2100.54 200.17 C 2104.46 218.53 2103.35 237.38 2103.50 256.01 C 2103.50 292.08 2103.51 328.15 2103.50 364.22 C 2093.32 364.22 2083.15 364.22 2072.98 364.22 C 2072.97 319.82 2072.99 275.41 2072.97 231.01 C 2072.77 212.33 2069.16 193.04 2058.88 177.14 C 2049.27 162.18 2033.17 152.20 2016.06 148.12 C 1986.39 140.62 1951.35 152.60 1935.54 179.53 C 1924.72 197.65 1922.71 219.35 1923.40 240.01 C 1923.40 281.41 1923.40 322.82 1923.40 364.22 C 1913.19 364.22 1902.98 364.22 1892.78 364.22 C 1892.78 256.13 1892.78 148.04 1892.78 39.95 Z" />
<path fill="#ffffff" opacity="1.00" d=" M 2459.18 39.95 C 2469.35 39.95 2479.52 39.95 2489.70 39.95 C 2489.70 68.15 2489.70 96.35 2489.70 124.55 C 2508.86 124.55 2528.03 124.55 2547.20 124.55 C 2547.20 133.71 2547.20 142.86 2547.20 152.02 C 2528.03 152.02 2508.87 152.02 2489.70 152.02 C 2489.71 222.75 2489.70 293.49 2489.70 364.22 C 2479.52 364.22 2469.35 364.22 2459.18 364.22 C 2459.18 293.49 2459.18 222.75 2459.18 152.02 C 2442.37 152.02 2425.56 152.02 2408.75 152.02 C 2408.74 142.86 2408.74 133.71 2408.75 124.55 C 2425.56 124.54 2442.37 124.55 2459.18 124.54 C 2459.18 96.35 2459.18 68.15 2459.18 39.95 Z" />
<path fill="#ffffff" opacity="1.00" d=" M 293.31 134.25 C 310.84 123.14 331.30 116.97 352.02 116.18 C 384.28 114.74 416.90 126.51 440.79 148.25 C 460.61 164.95 474.05 188.35 480.57 213.28 C 411.46 236.12 342.34 258.89 273.23 281.72 C 280.79 301.40 296.21 317.50 314.69 327.36 C 336.37 339.05 362.67 342.78 386.43 335.66 C 407.03 329.11 425.73 315.97 437.89 297.98 C 446.65 285.14 451.94 269.89 452.55 254.32 C 462.83 250.94 473.10 247.53 483.39 244.16 C 482.85 279.18 466.90 313.61 440.53 336.66 C 423.06 352.07 401.10 362.29 378.08 365.86 C 350.41 370.25 321.37 364.86 297.01 351.06 C 273.93 338.12 255.21 317.59 244.50 293.39 C 232.63 267.15 230.22 236.81 237.84 209.04 C 246.04 178.31 266.23 150.96 293.31 134.25 M 325.14 149.22 C 300.57 158.23 280.00 177.76 270.04 202.00 C 263.05 218.78 261.55 237.56 264.56 255.41 C 323.80 235.88 383.04 216.33 442.27 196.77 C 431.22 175.58 412.77 157.96 390.14 149.74 C 369.42 142.05 345.96 141.71 325.14 149.22 Z" />
<path fill="#ffffff" opacity="1.00" d=" M 545.93 128.04 C 559.08 120.24 574.80 117.33 589.94 118.71 C 607.61 120.35 624.58 129.38 635.36 143.55 C 644.18 154.88 648.63 169.29 648.49 183.60 C 638.30 183.62 628.11 183.60 617.92 183.61 C 617.12 173.20 613.68 162.44 605.83 155.19 C 593.13 143.08 571.31 142.80 558.06 154.17 C 547.77 162.97 543.02 177.85 546.62 190.94 C 548.82 199.11 554.80 205.76 561.80 210.28 C 574.79 218.84 590.36 221.71 604.56 227.61 C 620.98 234.13 637.13 243.77 646.81 259.01 C 656.52 273.97 658.26 292.71 655.87 310.03 C 653.71 325.99 646.48 341.56 634.25 352.27 C 620.89 364.21 602.72 369.37 585.08 369.84 C 568.99 370.54 552.75 366.14 539.17 357.47 C 531.24 352.44 524.43 345.64 519.30 337.78 C 510.67 324.68 507.36 308.73 507.73 293.21 C 517.97 293.20 528.22 293.19 538.46 293.21 C 538.73 307.33 542.20 322.57 553.05 332.45 C 560.62 339.26 570.96 342.34 581.02 342.37 C 591.93 342.49 603.35 340.00 611.99 333.01 C 619.22 327.25 623.71 318.59 625.30 309.57 C 627.23 298.57 626.34 286.46 619.97 276.97 C 613.63 267.31 603.10 261.56 592.70 257.23 C 586.49 254.76 580.32 252.16 573.97 250.06 C 564.55 246.97 555.27 243.27 546.65 238.32 C 535.26 231.84 525.13 222.42 519.81 210.27 C 507.35 181.46 518.44 143.92 545.93 128.04 Z" />
<path fill="#ffffff" opacity="1.00" d=" M 923.55 119.81 C 957.98 114.27 994.31 124.78 1020.98 147.12 C 1048.74 170.01 1066.64 204.92 1067.48 241.05 C 1068.44 274.44 1054.74 307.62 1031.57 331.50 C 1008.74 355.43 976.15 369.82 943.01 369.88 C 910.85 370.42 878.98 357.34 855.91 335.04 C 841.47 321.20 830.25 303.99 823.64 285.10 C 810.73 248.63 816.72 206.33 838.33 174.36 C 857.62 145.50 889.22 125.15 923.55 119.81 M 930.48 146.73 C 902.44 150.70 876.62 167.79 861.92 191.98 C 841.52 225.46 842.50 271.28 866.05 302.97 C 878.71 320.37 897.30 333.41 918.07 339.10 C 936.57 344.30 956.67 343.23 974.61 336.43 C 1000.64 326.85 1021.90 305.29 1030.94 279.05 C 1040.97 250.05 1038.88 216.07 1021.84 190.08 C 1002.50 160.47 965.90 141.89 930.48 146.73 Z" />
<path fill="#ffffff" opacity="1.00" d=" M 1125.70 162.68 C 1150.21 134.30 1187.55 117.75 1225.02 118.37 C 1259.32 118.84 1293.80 132.43 1317.61 157.43 C 1328.44 168.73 1336.89 182.22 1342.79 196.70 C 1331.59 196.71 1320.38 196.70 1309.19 196.71 C 1301.80 182.83 1291.16 170.61 1278.02 161.93 C 1258.70 149.02 1234.57 143.62 1211.57 146.75 C 1188.80 149.82 1167.00 160.53 1151.15 177.23 C 1134.49 194.39 1125.50 218.25 1125.40 242.06 C 1124.85 267.37 1134.22 292.87 1151.58 311.39 C 1164.57 325.45 1181.89 335.37 1200.53 339.67 C 1220.95 344.30 1242.86 343.17 1262.44 335.60 C 1282.47 327.90 1299.15 312.54 1309.28 293.71 C 1320.44 293.80 1331.61 293.72 1342.78 293.75 C 1335.06 308.65 1325.65 322.84 1313.62 334.62 C 1300.18 348.17 1283.38 358.34 1265.14 363.94 C 1226.93 375.44 1183.29 370.57 1150.01 347.95 C 1119.31 327.52 1098.56 292.87 1095.35 256.10 C 1092.00 222.51 1103.44 187.97 1125.70 162.68 Z" />
<path fill="#ffffff" opacity="1.00" d=" M 1698.93 122.09 C 1736.71 112.71 1778.82 121.32 1809.45 145.52 C 1834.73 165.33 1851.76 195.23 1856.04 227.06 C 1861.12 263.58 1849.38 302.18 1824.22 329.24 C 1801.12 354.63 1767.16 369.02 1733.02 369.82 C 1700.17 371.03 1666.32 358.52 1644.22 333.77 C 1640.47 330.06 1637.89 325.32 1634.13 321.66 C 1633.95 363.91 1634.10 406.16 1634.05 448.40 C 1623.86 448.41 1613.68 448.40 1603.50 448.40 C 1603.50 340.45 1603.50 232.50 1603.50 124.55 C 1613.68 124.55 1623.86 124.55 1634.05 124.55 C 1634.13 138.71 1633.88 152.88 1634.18 167.04 C 1638.29 162.81 1641.39 157.66 1645.62 153.50 C 1659.85 138.15 1678.64 127.18 1698.93 122.09 M 1715.48 146.74 C 1700.61 148.70 1686.25 154.33 1674.01 162.99 C 1647.51 181.51 1631.65 213.73 1632.30 245.96 C 1632.50 266.27 1638.94 286.55 1650.97 302.95 C 1662.85 319.31 1680.01 331.76 1699.29 337.87 C 1735.07 349.19 1777.66 339.11 1802.59 310.47 C 1816.19 295.15 1824.31 275.30 1826.14 254.95 C 1827.94 234.56 1824.44 213.44 1814.61 195.36 C 1806.56 180.41 1794.24 167.83 1779.54 159.35 C 1760.36 148.22 1737.43 143.91 1715.48 146.74 Z" />
<path fill="#ffffff" opacity="1.00" d=" M 2249.58 119.77 C 2283.24 114.45 2318.74 124.40 2345.15 145.83 C 2371.96 167.23 2389.96 199.66 2392.86 233.95 C 2395.63 265.05 2385.47 296.74 2366.27 321.22 C 2347.99 344.77 2321.25 361.80 2291.91 367.51 C 2261.28 373.75 2228.40 367.73 2202.03 350.93 C 2172.75 332.58 2151.26 301.96 2144.77 267.94 C 2138.46 234.33 2146.49 198.20 2166.73 170.59 C 2186.24 143.65 2216.67 124.83 2249.58 119.77 M 2256.52 146.68 C 2234.19 149.79 2213.19 161.19 2198.14 177.94 C 2172.10 206.59 2166.02 251.02 2181.95 286.09 C 2193.90 312.68 2218.54 333.23 2246.95 339.91 C 2266.82 344.75 2288.21 342.36 2306.74 333.79 C 2330.74 322.94 2349.66 301.61 2357.58 276.49 C 2366.30 248.86 2364.34 217.13 2348.94 192.18 C 2330.03 161.39 2292.69 141.89 2256.52 146.68 Z" />
<path fill="#ffffff" opacity="1.00" d=" M 2667.55 119.80 C 2704.07 113.90 2742.64 126.18 2769.69 151.25 C 2795.24 174.50 2811.26 208.34 2811.48 243.03 C 2811.91 277.90 2796.40 312.24 2771.02 335.96 C 2758.64 347.61 2743.90 356.77 2727.91 362.55 C 2704.02 371.22 2677.42 372.27 2652.94 365.44 C 2612.40 354.34 2578.88 321.49 2566.39 281.44 C 2556.99 251.86 2559.82 218.86 2572.94 190.84 C 2590.27 153.54 2626.90 126.05 2667.55 119.80 M 2673.62 146.84 C 2657.18 149.33 2641.52 156.32 2628.48 166.58 C 2609.54 181.30 2596.68 203.41 2592.94 227.08 C 2588.59 252.10 2593.49 278.90 2607.92 299.97 C 2620.36 318.55 2639.44 332.62 2660.95 338.80 C 2677.85 343.74 2696.17 343.54 2712.99 338.34 C 2731.05 332.84 2747.43 321.86 2759.26 307.14 C 2770.39 293.45 2777.34 276.56 2779.78 259.13 C 2782.56 239.58 2780.43 219.06 2771.95 201.10 C 2763.72 183.44 2749.67 168.73 2732.82 159.05 C 2715.09 148.82 2694.01 143.62 2673.62 146.84 Z" />
</g>
</svg>
